<?xml version="1.0" standalone="no"?>
<!DOCTYPE svg PUBLIC "-//W3C//DTD SVG 20010904//EN"
 "http://www.w3.org/TR/2001/REC-SVG-20010904/DTD/svg10.dtd">
<svg version="1.0" xmlns="http://www.w3.org/2000/svg"
 width="400.000000pt" height="400.000000pt" viewBox="0 0 400.000000 400.000000"
 preserveAspectRatio="xMidYMid meet">
<metadata>
Created by potrace 1.14, written by Peter Selinger 2001-2017
</metadata>
<g transform="translate(0.000000,400.000000) scale(0.100000,-0.100000)"
fill="#000000" stroke="none">
<path d="M0 2000 l0 -2000 2000 0 2000 0 0 2000 0 2000 -2000 0 -2000 0 0
-2000z m1313 938 c3 -7 197 -483 432 -1058 235 -575 429 -1051 432 -1057 4
-10 -32 -13 -160 -13 l-165 0 -123 325 -124 325 -445 0 -445 0 -117 -322 -116
-323 -157 -3 c-86 -1 -154 1 -151 6 4 6 729 1896 798 2080 l19 52 159 0 c117
0 159 -3 163 -12z m2044 -10 c173 -42 280 -111 360 -231 207 -310 107 -774
-201 -929 -33 -16 -103 -42 -155 -56 -94 -25 -105 -26 -488 -30 l-393 -4 0
-434 0 -434 -145 0 -145 0 0 1071 0 1070 553 -4 c449 -3 564 -7 614 -19z"/>
<path d="M1125 2635 c-27 -123 -78 -275 -206 -618 -65 -174 -119 -320 -119
-322 0 -3 160 -5 356 -5 335 0 356 1 351 18 -2 9 -60 163 -127 342 -68 179
-149 401 -180 494 l-57 169 -18 -78z"/>
<path d="M2480 2315 l0 -385 303 0 c450 1 536 17 643 124 80 80 99 133 99 271
0 91 -3 106 -31 166 -60 125 -147 183 -301 199 -48 5 -229 10 -400 10 l-313 0
0 -385z"/>
</g>
</svg>
