<?xml version="1.0" standalone="no"?>
<!DOCTYPE svg PUBLIC "-//W3C//DTD SVG 20010904//EN"
 "http://www.w3.org/TR/2001/REC-SVG-20010904/DTD/svg10.dtd">
<svg version="1.0" xmlns="http://www.w3.org/2000/svg"
 width="500.000000pt" height="500.000000pt" viewBox="0 0 500.000000 500.000000"
 preserveAspectRatio="xMidYMid meet">
<metadata>
Created by potrace 1.14, written by Peter Selinger 2001-2017
</metadata>
<g transform="translate(0.000000,500.000000) scale(0.100000,-0.100000)"
fill="#000000" stroke="none">
<path d="M0 2500 l0 -2000 2500 0 2500 0 0 2000 0 2000 -2500 0 -2500 0 0
-2000z m2942 1040 c48 -16 120 -46 160 -67 l73 -38 -57 -3 -58 -3 0 -429 0
-430 334 0 335 0 6 -55 c4 -30 4 -93 0 -140 l-7 -85 -334 0 -334 0 0 -453 0
-454 -92 -31 c-66 -23 -111 -32 -155 -32 l-63 0 0 1134 0 1133 53 -9 c28 -5
91 -22 139 -38z m-879 -585 c189 -456 325 -790 526 -1287 l140 -348 -177 0
-177 0 -128 328 c-69 180 -132 342 -138 360 l-11 32 -303 0 -303 0 -16 48
c-19 58 -46 171 -46 195 0 16 20 17 281 17 263 0 281 1 277 18 -3 9 -69 188
-147 397 -78 209 -147 396 -155 416 -13 35 -13 35 38 91 65 72 158 150 167
141 3 -5 81 -188 172 -408z"/>
</g>
</svg>
