<?xml version="1.0" standalone="no"?>
<!DOCTYPE svg PUBLIC "-//W3C//DTD SVG 20010904//EN"
 "http://www.w3.org/TR/2001/REC-SVG-20010904/DTD/svg10.dtd">
<svg version="1.0" xmlns="http://www.w3.org/2000/svg"
 width="500.000000pt" height="500.000000pt" viewBox="0 0 500.000000 500.000000"
 preserveAspectRatio="xMidYMid meet">
<metadata>
Created by potrace 1.14, written by Peter Selinger 2001-2017
</metadata>
<g transform="translate(0.000000,500.000000) scale(0.100000,-0.100000)"
fill="#000000" stroke="none">
<path d="M0 4737 l0 -264 80 -17 c263 -56 489 -281 698 -693 139 -274 246
-556 496 -1308 185 -555 196 -587 270 -773 120 -303 243 -544 355 -702 71
-100 188 -218 269 -271 112 -73 167 -91 302 -97 105 -4 122 -2 195 23 112 37
186 86 286 185 163 163 336 466 493 867 42 105 167 465 280 800 112 334 232
682 266 773 194 513 361 806 570 1003 121 114 255 184 388 202 l52 7 0 264 0
264 -2500 0 -2500 0 0 -263z m2465 -1783 c213 -36 405 -142 487 -265 46 -71
58 -109 58 -188 0 -322 -534 -549 -1026 -436 -105 24 -271 82 -349 123 -84 44
-178 133 -208 199 -31 68 -30 172 2 232 30 58 101 132 162 172 68 43 277 126
378 151 165 39 320 43 496 12z"/>
<path d="M0 2200 l0 -2200 2500 0 2500 0 0 2201 0 2202 -48 -6 c-128 -15 -251
-84 -378 -211 -112 -113 -208 -256 -318 -477 -139 -277 -226 -509 -509 -1359
-252 -757 -386 -1074 -573 -1356 -209 -317 -450 -468 -718 -451 -250 16 -448
156 -651 462 -137 206 -311 588 -421 925 -14 41 -31 89 -38 105 -8 17 -82 237
-166 490 -228 685 -315 915 -451 1188 -168 333 -323 524 -508 620 -70 37 -159
67 -198 67 l-23 0 0 -2200z"/>
</g>
</svg>
