<?xml version="1.0" standalone="no"?>
<!DOCTYPE svg PUBLIC "-//W3C//DTD SVG 20010904//EN"
 "http://www.w3.org/TR/2001/REC-SVG-20010904/DTD/svg10.dtd">
<svg version="1.0" xmlns="http://www.w3.org/2000/svg"
 width="500.000000pt" height="500.000000pt" viewBox="0 0 500.000000 500.000000"
 preserveAspectRatio="xMidYMid meet">
<metadata>
Created by potrace 1.14, written by Peter Selinger 2001-2017
</metadata>
<g transform="translate(0.000000,500.000000) scale(0.100000,-0.100000)"
fill="#000000" stroke="none">
<path d="M0 4736 c0 -284 -1 -276 52 -276 11 0 54 -12 96 -26 201 -67 375
-232 545 -518 89 -150 216 -426 297 -646 l31 -85 -36 35 c-49 47 -75 92 -135
240 -169 412 -399 744 -595 860 -69 41 -176 79 -222 80 l-33 0 0 -2200 0
-2200 2500 0 2500 0 0 2204 0 2203 -51 -8 c-139 -22 -238 -77 -365 -204 -113
-113 -162 -178 -259 -348 -153 -267 -256 -531 -542 -1381 -112 -336 -207 -616
-211 -622 -5 -10 -13 -9 -30 5 l-23 17 209 625 c116 343 231 680 257 749 250
671 498 1038 789 1170 48 22 188 60 221 60 3 0 5 119 5 265 l0 265 -2500 0
-2500 0 0 -264z m1234 -2172 l175 -524 -32 0 -32 0 -185 554 -186 554 42 -30
43 -31 175 -523z m1266 266 c156 -45 284 -131 333 -224 30 -57 30 -155 0 -212
-30 -57 -122 -138 -198 -174 -119 -57 -202 -73 -375 -74 -179 -1 -246 13 -375
74 -149 71 -225 166 -225 280 0 161 165 295 425 346 103 20 318 12 415 -16z
m-1052 -900 c20 -59 20 -60 1 -61 -10 -1 -24 -2 -30 -3 -9 -1 -49 85 -49 106
0 4 10 9 23 11 12 2 25 5 29 6 3 0 15 -26 26 -59z m102 -267 c34 -87 85 -206
113 -265 41 -89 48 -110 37 -123 -25 -31 -41 -15 -91 90 -43 94 -179 425 -179
439 0 2 10 7 23 9 12 2 25 5 28 6 3 0 34 -70 69 -156z m1969 128 c28 -24 27
-25 -66 -251 -238 -572 -485 -881 -777 -969 -342 -104 -654 71 -922 517 -35
59 -64 109 -64 113 0 6 51 32 55 27 1 -2 17 -30 35 -63 141 -251 285 -409 450
-494 96 -49 164 -65 271 -65 103 1 196 27 289 81 86 50 239 204 317 318 97
143 225 394 310 607 43 109 78 198 79 198 1 0 11 -9 23 -19z"/>
</g>
</svg>
